<svg xmlns="http://www.w3.org/2000/svg" xmlns:xlink="http://www.w3.org/1999/xlink" width="94" height="27" viewBox="0 0 94 27"><defs><path id="tf3la" d="M116.28 55.76a2.8 2.8 0 0 0 .86-.95c.2-.33.43-.81.68-1.45.24-.63.5-1.5.76-2.58a196.49 196.49 0 0 1 1.3-5.1l.84-3.16a332.82 332.82 0 0 1 1.53-5.74l.5-1.85a20.42 20.42 0 0 0-2.8 2.4c-.22-.19-.4-.4-.52-.63a2.07 2.07 0 0 1-.35-1.16c0-.28.22-.57.66-.87l1.05-.69c.46-.3 1.04-.59 1.73-.88a13.54 13.54 0 0 1 5.44-1.07c1.1 0 2 .22 2.67.66.68.44 1.2.98 1.56 1.61.36.63.6 1.3.7 2 .1.71.13 1.33.08 1.86-.1.98-.42 2.01-.95 3.08a10.76 10.76 0 0 1-2.2 2.97 12.07 12.07 0 0 1-8 3.4l-.41 2.06a66.04 66.04 0 0 1-.94 3.97c-.17.59-.34 1.1-.52 1.52-.17.45-.4.82-.68 1.1-.28.27-.73.4-1.35.4-.32 0-.61-.08-.88-.24a2.77 2.77 0 0 1-.76-.66zM123 41.7c-.2.85-.34 1.53-.45 2.04a110.36 110.36 0 0 0-.47 2.61 10.22 10.22 0 0 0 3.32-1.14c.58-.31 1.15-.7 1.7-1.14a8.58 8.58 0 0 0 3.26-6.06 5.6 5.6 0 0 0-.14-2.2 3.5 3.5 0 0 0-.8-1.43 2.98 2.98 0 0 0-1.22-.77 4.4 4.4 0 0 0-2.67-.04c-.42.13-.84.28-1.26.48.05.02.11.06.18.13.1.1.19.25.24.45a536.77 536.77 0 0 0-1.69 7.07zm17.4 6.1c-.18.67-.42 1.3-.71 1.88-.3.58-.66 1.08-1.07 1.5-.42.42-.88.75-1.4 1-.52.23-1.09.35-1.7.35a2.8 2.8 0 0 1-1.7-.46c-.42-.31-.73-.7-.93-1.15-.2-.46-.33-.96-.37-1.5-.05-.55-.07-1.06-.07-1.54 0-.33.04-.7.12-1.1a9.93 9.93 0 0 1 .87-2.52c.22-.42.48-.8.78-1.16.1-.3.27-.56.49-.79.22-.23.47-.42.76-.57a4.1 4.1 0 0 1 2.06-.43l.15.05c.23.02.51.1.86.26a4.1 4.1 0 0 1 1.83 1.91 4.09 4.09 0 0 1 .32 2.28l-.05.51a19.98 19.98 0 0 0 3.7-2.09c.34-.25.62-.5.83-.7a4.72 4.72 0 0 1-.31-.3c-.07-.09-.12-.26-.16-.52-.03-.23.02-.53.16-.9a5.34 5.34 0 0 1 1.32-1.95c.28-.25.55-.37.82-.37.5 0 .84.15 1.04.47.2.32.32.64.36.98.03.23.02.52-.06.87-.07.35-.2.67-.4.95l.22.12a2.29 2.29 0 0 0 1.02.01 2 2 0 0 1 .54-.05c.3 0 .54.07.74.22.19.15.35.34.47.56.13.22.22.46.28.71.06.26.1.49.12.7.05.44-.06.9-.34 1.37-.29.48-.63 1-1.03 1.56-.25.35-.5.75-.74 1.19-.25.44-.36.83-.32 1.19.03.22.1.41.18.55.1.14.34.21.74.21.3 0 .63-.1 1-.33.35-.22.72-.5 1.1-.84.38-.35.75-.72 1.12-1.14a29.07 29.07 0 0 0 2.33-2.97.73.73 0 0 1 .18-.2 96.38 96.38 0 0 1 .68-3.53c.22-1.1.45-2.16.7-3.19l-.9.11a7.08 7.08 0 0 1-2.42-.14c-.5-.14-.87-.26-1.12-.39-.14-.07-.2-.17-.18-.3a.94.94 0 0 1 .15-.4c.1-.13.2-.24.33-.34.14-.1.25-.15.36-.15l1.08.1a11.88 11.88 0 0 0 3.14-.2c.23-.85.46-1.58.68-2.2.22-.63.41-1.07.6-1.31.04-.09.16-.17.35-.23a3.08 3.08 0 0 1 1.2-.13c.2.03.33.1.42.2.09.14.12.5.1 1.08-.01.58-.1 1.32-.28 2.22a14.44 14.44 0 0 1 4.4.67l.42.16.22-.99c.05-.33.1-.66.13-.98.04-.28.05-.57.05-.87 0-.3-.02-.57-.08-.82.15-.08.3-.15.47-.2.16-.06.33-.1.48-.14a6.77 6.77 0 0 1 1.11-.18c.14 0 .28.01.4.04.12.02.2.08.24.17.1.09.15.26.14.53 0 .26-.03.53-.06.81l-.24 1.09a1255.57 1255.57 0 0 0-4.17 16.16.73.73 0 0 1-.32.18c-.12.03-.24.05-.34.05-.13 0-.26 0-.4-.03a1.68 1.68 0 0 1-.37-.15c-.1-.07-.2-.17-.31-.28-.11-.12-.19-.27-.24-.46l.7-2.93a24 24 0 0 1-1.39 1.62 13.6 13.6 0 0 1-1.85 1.68c-.6.44-1.1.66-1.5.66a2.73 2.73 0 0 1-2.36-1.19 3.4 3.4 0 0 1-.54-2.2c.01-.26.07-.72.16-1.38a28.58 28.58 0 0 1-1.78 2.25c-.44.5-.9.96-1.38 1.37-.49.41-.97.75-1.45 1.01-.49.27-.95.4-1.39.4-.46 0-.84-.09-1.14-.26a2.36 2.36 0 0 1-1.12-1.5c-.08-.3-.1-.59-.09-.85.02-.21.07-.44.17-.68a8.95 8.95 0 0 1 .77-1.5c.15-.26.28-.5.4-.75.3-.51.55-.95.73-1.31.19-.36.28-.66.28-.91 0-.16-.04-.3-.1-.42-.08-.13-.2-.19-.35-.19-.1 0-.18 0-.22.02a.66.66 0 0 1-.14 0l-.18.02-.36.01c-.23 0-.42-.03-.58-.1-.16-.07-.3-.12-.45-.16l-.47.8a186.62 186.62 0 0 0-1.89 3.13l-1.02 1.68-.8 1.32-.41.65a.93.93 0 0 1-.4.38.53.53 0 0 1-.4.03c-.12-.05-.2-.14-.23-.28s0-.32.1-.53a1533.56 1533.56 0 0 0 2.99-6.01 19.71 19.71 0 0 1-2.22 1.55c-.58.35-1.13.62-1.66.8zm24.34-8.92a4.35 4.35 0 0 1-.6-.1c-.21-.06-.48-.1-.79-.14l-1.1-.1a18.03 18.03 0 0 0-2.24-.03l-.2.83c-.06.27-.14.56-.24.86a74.88 74.88 0 0 1-1.75 4.78c-.37.93-.78 1.92-1.24 2.98a4 4 0 0 0 .04 1.73c.13.4.3.68.49.86.23.2.51.3.84.31.27.04.59-.05.97-.27.38-.22.77-.52 1.17-.89a22.67 22.67 0 0 0 2.38-2.5l.76-.95a4351.93 4351.93 0 0 0 1.75-7.37.6.6 0 0 1-.24 0zm-28.8 4.9c-.06.17-.08.33-.08.51 0 .28.01.58.05.88.04.31.12.59.26.84.15.24.37.45.68.62a2.71 2.71 0 0 0 1.54.23c.09 0 .18-.02.27-.04l.14-.62a5.06 5.06 0 0 0-.13-2.48c-.1-.29-.22-.52-.37-.71a.67.67 0 0 0-.54-.28c-.34 0-.66.1-.97.28-.3.19-.59.44-.85.78zm-1.7 4.66c0 .31.02.62.06.93.04.31.1.58.21.82.1.24.25.43.42.58.18.15.4.23.69.23.32 0 .6-.08.87-.23.27-.15.5-.34.71-.58.22-.24.4-.5.57-.82.17-.3.31-.63.44-.96a5.12 5.12 0 0 1-.74.05c-.67 0-1.25-.2-1.73-.6-.49-.39-.86-.9-1.12-1.51-.1.37-.2.73-.27 1.08-.07.35-.1.69-.1 1zm45.43 1.17c-.41.52-.82 1-1.22 1.43a6 6 0 0 1-.99.9 3.15 3.15 0 0 1-1.98.36c-.2-.04-.4-.12-.55-.22a1.4 1.4 0 0 1-.4-.53 4.33 4.33 0 0 1-.34-1.95 5.51 5.51 0 0 1-4.43 2.8c-.25 0-.51-.09-.8-.26a1.97 1.97 0 0 1-.7-.79c-.2-.36-.33-.82-.38-1.4a9.78 9.78 0 0 1 1.39-4.98c.53-.87 1.12-1.63 1.75-2.25a7.81 7.81 0 0 1 1.88-1.41 2.96 2.96 0 0 1 1.53-.42c.47.08.86.22 1.16.42.25.17.4.43.49.78.08.34-.07.8-.44 1.36a6.1 6.1 0 0 1 1-.14c.11 0 .18.01.22.03a.6.6 0 0 1 .02.22c0 .12-.02.33-.08.63l-.23 1.2a215.93 215.93 0 0 1-.52 2.43l-.08.4-.09.45-.13.66a3.2 3.2 0 0 0-.01.52c0 .18.03.35.09.51.05.16.13.29.25.39.11.1.28.14.49.14.17 0 .4-.1.68-.33.28-.22.58-.5.9-.84a28.78 28.78 0 0 0 1.95-2.34 97.87 97.87 0 0 1 .92-1.16 447.77 447.77 0 0 0 .44-2.03l.47-1.85c.12-.1.25-.2.38-.25.13-.07.27-.11.4-.15.15-.05.3-.09.46-.1a2.21 2.21 0 0 1 .8.12c.13.04.25.1.36.2l-.19.5-.2.7a9.6 9.6 0 0 1-.27.88c.23-.32.49-.64.78-.97.29-.32.6-.62.95-.88.34-.26.7-.48 1.1-.65.38-.16.78-.25 1.18-.25.34 0 .64.1.9.3.26.19.47.45.62.8.15.34.24.75.26 1.23.03.47-.04.99-.2 1.55l-.28 1.16a58.9 58.9 0 0 1-.82 2.96c-.1.39-.15.72-.12 1 .02.29.2.43.51.43.32 0 .72-.2 1.2-.58.49-.4.98-.86 1.47-1.4.41-.46.81-.93 1.19-1.41a9.2 9.2 0 0 1 1.8-4.1 6.53 6.53 0 0 1 1.83-1.6c.67-.4 1.36-.6 2.04-.6.3 0 .58.07.82.22.25.15.46.35.64.58a4.81 4.81 0 0 1 .69 1.57l.33-1.5a59.03 59.03 0 0 1 .88-3.51l.6-2.25c.23-.84.49-1.73.77-2.66a2.34 2.34 0 0 1 .95-.48c.16-.05.3-.08.45-.08.17 0 .33.03.47.07.14.04.26.16.36.34.1.19.16.46.2.83a12.41 12.41 0 0 1-.4 4.04c-.25.92-.56 1.86-.95 2.84a33.24 33.24 0 0 1-2.96 5.72l-.25 1.55c-.08.5-.12.9-.14 1.2-.02.43.06.75.24.94.17.2.37.3.58.3.24 0 .55-.13.9-.38.37-.24.75-.55 1.16-.92.4-.37.8-.77 1.21-1.21a57.39 57.39 0 0 0 2.48-2.88.6.6 0 0 1 .33-.19c.12-.01.2 0 .28.06.07.05.1.15.1.29 0 .14-.07.31-.2.52a27.18 27.18 0 0 1-3.2 3.96c-.46.46-.91.87-1.36 1.22-.45.35-.88.64-1.3.86-.4.22-.78.33-1.12.33-.24 0-.48-.07-.7-.21a2.65 2.65 0 0 1-1-1.32c-.1-.29-.14-.57-.12-.85l.08-.63c-.74.82-1.48 1.48-2.23 1.96-.75.49-1.46.73-2.15.73a1.99 1.99 0 0 1-1.55-.8c-.22-.27-.4-.64-.54-1.1-.08-.28-.14-.6-.16-.96l-.58.68c-.4.47-.82.9-1.26 1.27a7.8 7.8 0 0 1-1.31.92c-.43.24-.84.36-1.23.36-.4 0-.75-.08-1.04-.22a1.92 1.92 0 0 1-1.04-1.46c-.06-.32-.04-.67.05-1.04.05-.25.14-.58.26-.99a60.83 60.83 0 0 0 .76-2.8c.11-.48.19-.92.22-1.32.04-.4.02-.72-.05-.98-.07-.25-.22-.38-.45-.38-.28 0-.57.1-.87.28-.3.18-.6.44-.91.75-.31.32-.62.68-.93 1.1l-.9 1.28a59.7 59.7 0 0 0-.68 2.78 27.5 27.5 0 0 1-.41 1.73c-.05.18-.21.35-.48.52-.26.16-.54.3-.84.4-.3.11-.56.16-.78.16-.22 0-.31-.07-.28-.23l.18-.72.34-1.3.4-1.6.01-.01-.78 1zm-5.58-1.7l.31-1.24a25.45 25.45 0 0 0 .52-2.47c.04-.3.03-.43-.04-.41-.1.02-.19.04-.3.08-.08.03-.2.06-.34.08-.14.02-.28.04-.42.08.14-.28.23-.52.25-.7.03-.19.03-.33.02-.44a.63.63 0 0 0-.11-.29c-.2-.16-.53-.03-1.02.38a8.98 8.98 0 0 0-1.67 2.29c-.27.46-.48.94-.64 1.46-.16.52-.27 1.01-.33 1.47-.06.46-.07.86-.04 1.2.04.34.1.57.21.67.2.2.42.29.66.28.25 0 .5-.08.76-.21a6.22 6.22 0 0 0 1.95-1.8c.13-.2.2-.34.23-.43zm25.29-.61l.2-1c.06-.34.13-.68.22-1.03a.9.9 0 0 0-.1.05.88.88 0 0 1-.09.05c-.19.1-.32.09-.4-.01-.06-.1-.1-.25-.1-.46 0-.1 0-.3-.02-.57a4.26 4.26 0 0 0-.15-.84c-.08-.3-.2-.55-.36-.77a.77.77 0 0 0-.66-.33c-.4 0-.81.2-1.24.62-.42.41-.81.92-1.18 1.5-.37.6-.68 1.22-.93 1.9a6.53 6.53 0 0 0-.42 1.79c-.04.84.07 1.45.32 1.82.24.37.58.55 1 .55.32 0 .66-.12 1.04-.37a7.3 7.3 0 0 0 1.11-.9c.36-.35.7-.7 1-1.08l.76-.92z"/></defs><g><g transform="translate(-115 -31)"><use fill="#3a405b" xlink:href="#tf3la"/></g></g></svg>