<svg xmlns="http://www.w3.org/2000/svg" xmlns:xlink="http://www.w3.org/1999/xlink" width="94" height="27" viewBox="0 0 94 27"><defs><path id="colla" d="M115.28 3003.76a2.82 2.82 0 0 0 .86-.95c.2-.33.43-.81.68-1.45.24-.63.5-1.5.76-2.59a191.09 191.09 0 0 1 1.3-5.09 519.86 519.86 0 0 0 1.66-6.24 795.83 795.83 0 0 0 1.21-4.5 9.1 9.1 0 0 0-.97.7 19.87 19.87 0 0 0-1.83 1.7c-.22-.2-.4-.4-.52-.64-.07-.1-.14-.22-.19-.34-.1-.26-.16-.54-.16-.82 0-.28.22-.57.66-.87l1.05-.69c.46-.3 1.04-.59 1.73-.88a13.51 13.51 0 0 1 5.44-1.07c1.1 0 2 .22 2.67.66.68.44 1.2.98 1.56 1.61.36.64.6 1.3.7 2 .1.71.13 1.33.08 1.86-.1.98-.42 2.01-.95 3.08a10.75 10.75 0 0 1-2.2 2.97 12.07 12.07 0 0 1-8 3.4l-.41 2.06a66.42 66.42 0 0 1-.94 3.97c-.17.59-.34 1.1-.52 1.52a3 3 0 0 1-.68 1.1c-.28.27-.73.4-1.35.4-.32 0-.61-.08-.88-.23a2.78 2.78 0 0 1-.76-.67zm6.71-14.07c-.2.85-.34 1.53-.45 2.04a109.2 109.2 0 0 0-.47 2.61 10.21 10.21 0 0 0 5.03-2.28 8.59 8.59 0 0 0 3.26-6.06 5.6 5.6 0 0 0-.15-2.2 3.5 3.5 0 0 0-.8-1.43 2.97 2.97 0 0 0-1.22-.77 4.4 4.4 0 0 0-2.67-.04c-.42.13-.84.28-1.26.48.05.01.11.06.18.13.1.1.19.25.24.45a533.27 533.27 0 0 0-1.69 7.07zm17.4 6.1c-.18.67-.42 1.3-.71 1.88-.3.58-.66 1.08-1.07 1.5-.42.42-.88.75-1.4 1-.52.23-1.09.35-1.7.35a2.8 2.8 0 0 1-1.7-.46c-.42-.31-.73-.7-.93-1.15-.2-.46-.33-.96-.37-1.5-.05-.55-.07-1.06-.07-1.54 0-.33.04-.7.12-1.1a9.96 9.96 0 0 1 .87-2.52c.22-.42.48-.8.78-1.16.1-.3.27-.56.49-.79.22-.23.47-.42.76-.57a4.14 4.14 0 0 1 2.06-.43l.15.05c.23.02.51.1.86.26a4.1 4.1 0 0 1 1.83 1.91 4.09 4.09 0 0 1 .32 2.28l-.05.51a19.68 19.68 0 0 0 3.7-2.09c.34-.25.62-.5.83-.7a4.82 4.82 0 0 1-.31-.3c-.07-.09-.12-.26-.16-.52-.03-.23.02-.53.16-.9a5.34 5.34 0 0 1 1.32-1.95c.28-.25.55-.37.82-.37.5 0 .84.15 1.04.47.2.32.32.64.36.98.03.23.02.52-.06.87-.07.35-.2.67-.4.95l.22.12a2.26 2.26 0 0 0 1.02.01c.11-.03.3-.05.54-.05.3 0 .54.07.74.22.19.15.35.34.47.56.13.22.22.45.28.71.06.26.1.49.12.7.05.44-.06.9-.35 1.37-.28.48-.62 1-1.02 1.56-.25.35-.5.75-.74 1.19-.25.44-.36.83-.32 1.19.03.23.1.41.18.55.1.14.34.21.74.21.3 0 .63-.1 1-.33.35-.22.72-.5 1.1-.84.38-.35.75-.72 1.12-1.14a29.51 29.51 0 0 0 2.33-2.97.74.74 0 0 1 .18-.2l.08-.45.6-3.08c.22-1.1.45-2.16.7-3.19l-.9.11a6.96 6.96 0 0 1-2.42-.15c-.5-.13-.87-.25-1.12-.38-.14-.07-.2-.17-.18-.3a.95.95 0 0 1 .15-.4c.1-.13.2-.24.33-.34.14-.1.25-.15.36-.15l1.08.1a12.02 12.02 0 0 0 3.14-.2c.23-.85.46-1.58.68-2.2a5.7 5.7 0 0 1 .6-1.31c.04-.09.16-.16.35-.23a3.08 3.08 0 0 1 1.2-.13c.2.03.33.1.42.2.09.14.12.5.1 1.08-.01.58-.1 1.32-.28 2.22a14.48 14.48 0 0 1 4.4.67l.42.16.22-.99c.05-.33.1-.66.13-.98.04-.28.05-.57.05-.87 0-.3-.02-.57-.08-.82.15-.08.3-.15.47-.2.16-.06.33-.1.48-.14a7.07 7.07 0 0 1 1.11-.18c.14 0 .28 0 .4.04.12.02.2.08.24.17.1.09.15.26.14.53 0 .26-.03.53-.06.81l-.24 1.09a1254.13 1254.13 0 0 0-4.17 16.16.72.72 0 0 1-.32.18c-.12.03-.24.05-.34.05-.13 0-.26 0-.4-.03a1.68 1.68 0 0 1-.37-.15c-.1-.07-.2-.17-.31-.28a1.1 1.1 0 0 1-.24-.46l.7-2.93c-.45.57-.91 1.1-1.39 1.62-.63.68-1.25 1.24-1.85 1.68-.6.44-1.1.66-1.5.66a2.72 2.72 0 0 1-2.36-1.19 3.4 3.4 0 0 1-.54-2.2c.01-.26.07-.72.16-1.38a28.68 28.68 0 0 1-1.78 2.25c-.44.5-.9.96-1.38 1.37-.49.41-.97.75-1.45 1.01-.49.27-.95.4-1.39.4a2.21 2.21 0 0 1-2.26-1.75c-.08-.31-.1-.6-.09-.86.02-.21.07-.44.17-.68a9.06 9.06 0 0 1 .77-1.5c.15-.26.28-.5.4-.75.3-.51.55-.95.73-1.31.19-.36.28-.66.28-.91 0-.16-.04-.3-.1-.42-.08-.13-.2-.19-.35-.19l-.22.01a.63.63 0 0 1-.14.02l-.18.01-.36.01c-.23 0-.42-.03-.58-.1-.16-.07-.3-.12-.45-.16l-.47.8a190.62 190.62 0 0 0-1.89 3.13l-1.02 1.68-.8 1.32-.41.65a.93.93 0 0 1-.4.38.53.53 0 0 1-.4.03c-.12-.05-.2-.14-.23-.28s0-.32.1-.53l.36-.71.66-1.33.83-1.7a314.67 314.67 0 0 1 1.14-2.27 19.76 19.76 0 0 1-2.22 1.55 8.3 8.3 0 0 1-1.66.8zm24.34-8.92a4.29 4.29 0 0 1-.6-.1 6.8 6.8 0 0 0-.79-.14l-1.1-.1a18.2 18.2 0 0 0-2.24-.03l-.2.83c-.06.27-.14.56-.24.86a75.02 75.02 0 0 1-1.75 4.78 102 102 0 0 1-1.24 2.98 4 4 0 0 0 .04 1.73c.13.4.3.68.49.86.23.2.51.3.84.31.27.04.59-.05.97-.27.38-.22.77-.52 1.17-.89a22.88 22.88 0 0 0 2.38-2.5l.76-.95a5484.44 5484.44 0 0 0 1.75-7.37.6.6 0 0 1-.24 0zm-28.8 4.9c-.06.17-.08.33-.08.51 0 .28.01.58.05.88.04.31.12.59.26.84.14.24.37.45.68.62a2.7 2.7 0 0 0 1.54.23l.27-.03.14-.63a5.05 5.05 0 0 0-.13-2.48c-.1-.29-.22-.53-.37-.71a.68.68 0 0 0-.54-.28c-.34 0-.66.1-.97.28-.3.18-.59.44-.85.78zm-1.7 4.66c0 .31.02.63.06.93.03.31.1.58.21.82.1.24.25.43.42.58.18.15.4.23.69.23.32 0 .6-.08.87-.23.27-.15.5-.34.71-.58.22-.24.4-.5.57-.82.17-.3.31-.63.44-.96a5.13 5.13 0 0 1-.74.05c-.67 0-1.25-.2-1.73-.6a3.9 3.9 0 0 1-1.12-1.51c-.1.37-.2.73-.27 1.08-.07.35-.1.69-.1 1zm45.43 1.17c-.41.52-.82 1-1.22 1.43-.4.43-.72.73-.99.9a3.2 3.2 0 0 1-1.3.4c-.24.02-.46 0-.68-.04-.2-.04-.4-.12-.55-.22a1.4 1.4 0 0 1-.4-.53 4.54 4.54 0 0 1-.34-1.95 5.5 5.5 0 0 1-4.43 2.8c-.25 0-.52-.09-.8-.26a1.97 1.97 0 0 1-.7-.79c-.2-.36-.33-.82-.38-1.4a9.78 9.78 0 0 1 1.39-4.98c.53-.87 1.12-1.63 1.75-2.25a7.81 7.81 0 0 1 1.88-1.41 2.96 2.96 0 0 1 1.53-.43c.47.1.86.23 1.16.43.25.17.4.43.49.78.08.34-.07.8-.44 1.36a6.25 6.25 0 0 1 1-.14c.11 0 .18.01.22.03l.02.22c0 .12-.02.33-.08.62a213.03 213.03 0 0 1-.75 3.63l-.08.4-.09.46-.13.66c-.02.16-.02.33-.01.52 0 .18.03.35.09.51.05.16.13.29.25.39.11.1.28.14.49.14.17 0 .4-.1.68-.33.28-.22.58-.5.9-.84a28.25 28.25 0 0 0 1.95-2.34 108.87 108.87 0 0 1 .92-1.16 499.2 499.2 0 0 0 .44-2.04l.47-1.84c.12-.1.25-.2.38-.25.13-.07.27-.11.4-.15.15-.05.3-.09.46-.1a2.27 2.27 0 0 1 .8.12c.13.04.25.1.36.2l-.19.5-.2.7-.27.88c.23-.32.49-.64.78-.97.29-.32.6-.62.95-.88.34-.26.7-.48 1.1-.65.38-.16.78-.25 1.18-.25.34 0 .64.1.9.3.26.19.47.45.62.8.15.34.24.75.26 1.23.03.47-.04.99-.2 1.55l-.28 1.16-.33 1.31c-.14.5-.3 1.05-.5 1.65-.1.39-.14.72-.11 1 .02.29.2.43.51.43.32 0 .72-.2 1.2-.58.49-.39.98-.86 1.47-1.4.41-.46.81-.93 1.19-1.41a9.18 9.18 0 0 1 1.8-4.1 6.53 6.53 0 0 1 1.83-1.6c.67-.4 1.36-.6 2.04-.6.3 0 .58.07.82.22.25.15.46.35.64.58a4.8 4.8 0 0 1 .69 1.57l.33-1.5a59.03 59.03 0 0 1 .88-3.51l.6-2.25c.23-.84.49-1.73.77-2.66a2.36 2.36 0 0 1 .95-.48c.16-.05.3-.08.45-.08.17 0 .33.03.47.07.14.04.26.16.36.34.1.19.16.46.2.83a12.4 12.4 0 0 1-.4 4.04c-.25.92-.56 1.86-.95 2.84a33.25 33.25 0 0 1-2.96 5.72l-.25 1.55c-.08.5-.12.9-.14 1.2-.02.43.06.75.24.94.17.2.37.3.58.3.24 0 .55-.13.9-.38.37-.24.75-.55 1.16-.92.4-.37.8-.77 1.21-1.21a56.13 56.13 0 0 0 2.48-2.88.6.6 0 0 1 .33-.19c.12-.01.2 0 .28.06.07.05.1.15.1.29 0 .14-.07.31-.2.52a27.6 27.6 0 0 1-3.2 3.96c-.46.46-.91.87-1.36 1.22-.45.35-.88.64-1.3.86-.4.22-.78.33-1.12.33-.24 0-.48-.07-.7-.21a2.65 2.65 0 0 1-1-1.32c-.1-.29-.14-.57-.12-.85l.08-.63a11.2 11.2 0 0 1-2.23 1.96c-.75.49-1.46.73-2.15.73a2 2 0 0 1-1.55-.8c-.22-.27-.4-.64-.54-1.1-.08-.28-.14-.6-.16-.96l-.58.68c-.4.47-.82.9-1.26 1.27-.44.38-.88.69-1.31.92-.43.24-.84.36-1.23.36-.4 0-.75-.08-1.04-.23a1.92 1.92 0 0 1-1.04-1.45c-.06-.32-.04-.67.05-1.04.05-.25.14-.58.26-.99a62.98 62.98 0 0 0 .76-2.8c.11-.48.19-.92.22-1.32.04-.4.02-.72-.05-.97-.07-.26-.22-.39-.45-.39-.28 0-.57.1-.87.28-.3.18-.6.43-.91.75-.31.32-.62.68-.93 1.1l-.9 1.28a59.66 59.66 0 0 0-.68 2.78 27.93 27.93 0 0 1-.41 1.73c-.05.18-.21.35-.48.52-.26.16-.54.3-.84.4-.3.11-.56.16-.78.16-.22 0-.31-.07-.28-.23l.18-.72.34-1.3.4-1.6.01-.01-.78 1zm-5.58-1.7l.31-1.24a25.45 25.45 0 0 0 .52-2.47c.04-.3.03-.43-.04-.41-.1.02-.19.04-.3.08-.08.03-.2.06-.34.08-.14.02-.28.04-.42.08.14-.28.23-.52.25-.7.03-.19.03-.33.02-.44a.63.63 0 0 0-.11-.29c-.2-.16-.53-.03-1.02.38a8.99 8.99 0 0 0-1.67 2.29c-.27.46-.48.94-.64 1.46-.16.52-.27 1.01-.33 1.47-.06.46-.07.86-.04 1.2.04.34.1.57.21.67.2.2.42.29.66.28.25 0 .5-.08.76-.21a6.14 6.14 0 0 0 1.95-1.8c.13-.2.2-.34.23-.43zm25.29-.61l.2-1c.06-.34.13-.68.22-1.03a.95.95 0 0 0-.1.05.81.81 0 0 1-.09.05c-.19.1-.32.09-.4-.01-.06-.1-.1-.25-.1-.46 0-.1 0-.3-.02-.57a4.27 4.27 0 0 0-.15-.84c-.08-.3-.2-.55-.36-.77a.77.77 0 0 0-.66-.33c-.4 0-.81.2-1.24.62a8.2 8.2 0 0 0-1.18 1.5c-.37.6-.68 1.22-.93 1.9a6.52 6.52 0 0 0-.42 1.79c-.04.84.07 1.45.32 1.82.24.37.58.55 1 .55.32 0 .66-.12 1.04-.37.38-.24.75-.54 1.11-.9.36-.34.7-.7 1-1.08l.76-.92z"/></defs><g><g transform="translate(-114 -2979)"><use fill="#fff" xlink:href="#colla"/></g></g></svg>