<svg xmlns="http://www.w3.org/2000/svg" xmlns:xlink="http://www.w3.org/1999/xlink" width="27" height="17" viewBox="0 0 27 17"><defs><path id="mtwpa" d="M1265.62 3000a7.56 7.56 0 0 1-7.62-7.5 7.65 7.65 0 1 1 12.75-5.53l-2.24 2.16a4.5 4.5 0 0 0-7.38 3.37c0 2.44 2.01 4.41 4.48 4.41a4.48 4.48 0 0 0 4.2-2.84h-4.3v-3.14h7.55a7.56 7.56 0 0 1-7.45 9.07zm16.38-6.93h-2.65v2.6h-1.93v-2.6h-2.65v-1.9h2.65v-2.61h1.93v2.61h2.65z"/></defs><g><g transform="translate(-1257 -2984)"><use fill="#fff" xlink:href="#mtwpa"/></g></g></svg>