<svg xmlns="http://www.w3.org/2000/svg" xmlns:xlink="http://www.w3.org/1999/xlink" width="22" height="20" viewBox="0 0 22 20"><defs><path id="dcgga" d="M1100 40.05l-1 2.99c-.37.84-.9 2-2 2h-9.64l.12.99H1100l-1 1.99h-12.65l-.64.07-1.19-10.03H1083a1 1 0 0 1-1-1c0-.54.35-1.05.9-1.05l3.4-.02.25 2.15c.12-.04.26-.08.45-.08h12c1.1 0 1 .9 1 2zm-12 8.96a2 2 0 1 1 0 4 2 2 0 0 1 0-4zm8 0a2 2 0 1 1 .01 4 2 2 0 0 1-.01-4z"/></defs><g><g transform="translate(-1080 -34)"><use fill="#343e5c" xlink:href="#dcgga"/></g></g></svg>